# xmcd CD database file
#
# Track frame offsets:
#	150
#	22645
#	44345
#
# Disc length: 888 seconds
#
# Revision: 1
# Processed by: cddbd v1.5.2PL0 Copyright (c) Steve Scherf et al.
# Submitted via: CDex 1.70beta2
#
DISCID=15037603
DTITLE=観月ありさ - TOO SHY SHY BOY!
DYEAR=1992
DGENRE=JPop
TTITLE0=TOO SHY SHY BOY!
TTITLE1=春のとびら
TTITLE2=TOO SHY SHY BOY!オリジナルカラオケ
EXTD=YEAR: 1992
EXTT0=
EXTT1=
EXTT2=
PLAYORDER=
